<?xml version="1.0" standalone="no"?>
<!DOCTYPE svg PUBLIC "-//W3C//DTD SVG 20010904//EN"
 "http://www.w3.org/TR/2001/REC-SVG-20010904/DTD/svg10.dtd">
<svg version="1.0" xmlns="http://www.w3.org/2000/svg"
 width="200.000000pt" height="200.000000pt" viewBox="0 0 200.000000 200.000000"
 preserveAspectRatio="xMidYMid meet">
<metadata>
Created by potrace 1.14, written by Peter Selinger 2001-2017
</metadata>
<g transform="translate(0.000000,200.000000) scale(0.100000,-0.100000)"
fill="#000000" stroke="none">
<path d="M0 1735 l0 -264 47 20 c100 43 245 58 341 35 63 -14 67 -13 63 22 -1
6 3 12 9 12 5 0 10 -5 10 -11 0 -8 6 -7 17 2 11 9 14 10 9 2 -5 -9 -2 -11 13
-5 28 10 29 17 4 46 -13 14 -22 26 -20 27 1 0 13 2 26 3 13 2 28 10 33 19 5
10 14 17 19 17 6 0 3 -10 -5 -22 -28 -39 -19 -49 21 -25 l38 22 -24 -33 c-37
-53 -17 -48 36 8 48 52 76 71 123 85 21 6 17 -1 -24 -44 -32 -33 -77 -64 -130
-90 -101 -49 -168 -115 -190 -190 -16 -54 -142 -242 -198 -297 -234 -227 -219
-195 -216 -451 l3 -197 34 -23 c47 -32 104 -46 186 -47 88 -1 176 37 197 85 7
16 18 27 24 25 6 -2 71 -16 145 -31 74 -14 168 -37 210 -51 65 -21 79 -30 89
-55 27 -64 -8 -166 -92 -272 -51 -65 -31 -79 23 -16 77 89 143 249 115 280 -9
11 -8 11 6 0 9 -7 14 -19 11 -27 -3 -8 -1 -14 4 -14 5 0 10 11 11 24 1 18 -9
33 -33 54 -34 28 -153 74 -225 87 -97 18 -331 194 -380 285 -25 47 -30 79 -12
82 34 7 62 -5 114 -52 128 -114 328 -174 563 -168 55 1 179 -1 275 -6 202 -10
325 2 407 39 57 26 60 31 77 137 5 26 13 45 18 42 6 -4 7 9 3 33 -5 29 -4 35
5 23 9 -11 10 0 5 48 -3 35 -3 90 1 123 5 48 10 59 25 59 25 0 37 -27 55 -118
17 -85 12 -187 -12 -237 l-13 -30 4 40 5 40 -12 -32 c-11 -32 -6 -63 10 -63 4
0 21 18 38 41 16 22 35 47 42 54 7 8 18 39 24 68 10 49 9 62 -16 140 -32 100
-64 138 -138 163 -117 39 -309 -12 -371 -99 -15 -20 -27 -44 -27 -52 0 -7 -5
-17 -10 -20 -6 -4 -8 -10 -5 -15 3 -4 -2 -13 -10 -20 -8 -7 -15 -18 -15 -24 0
-6 5 -4 10 4 5 8 10 11 10 6 0 -4 8 1 18 12 30 34 163 154 167 150 4 -4 -172
-194 -290 -313 -50 -49 -113 -102 -140 -117 -141 -75 -387 -59 -555 36 -55 30
-126 90 -141 117 -10 19 -9 20 18 5 15 -8 37 -23 49 -34 44 -42 139 -79 150
-59 4 7 4 9 0 5 -9 -8 -88 61 -81 72 2 4 -14 26 -36 48 -36 39 -44 42 -91 42
-129 0 -226 -78 -204 -165 6 -25 69 -61 87 -49 5 3 9 0 9 -5 0 -6 -6 -11 -12
-11 -7 0 -4 -6 7 -12 11 -6 29 -20 39 -30 11 -10 24 -18 28 -18 5 0 6 -6 2
-13 -4 -6 -4 -9 1 -5 6 6 42 -13 75 -39 2 -2 -1 -8 -9 -12 -10 -6 -9 -10 4
-14 9 -4 13 -3 10 3 -10 16 1 12 67 -25 35 -19 57 -35 51 -35 -28 0 -262 53
-318 72 -78 27 -164 70 -206 104 l-34 27 30 -31 c17 -17 55 -45 85 -61 62 -34
61 -42 -1 -10 -54 27 -131 99 -125 116 3 7 0 12 -7 10 -22 -4 -10 100 18 157
31 64 37 71 110 131 33 28 70 60 83 73 12 12 27 20 31 17 5 -2 25 2 45 10 20
9 41 13 47 9 5 -3 15 -1 22 5 8 6 18 6 27 1 8 -6 26 -9 40 -9 21 1 19 2 -10
11 l-35 10 29 15 c23 12 132 53 141 53 2 0 5 -13 8 -29 7 -34 29 -44 72 -33
25 7 44 29 61 70 1 1 20 0 42 -4 23 -4 39 -10 36 -15 -7 -12 3 -11 26 1 60 32
50 328 -14 398 -13 15 -12 23 12 74 15 32 30 58 34 58 3 0 28 -16 53 -36 26
-19 48 -34 49 -32 40 54 63 81 90 101 l32 25 2 -149 c1 -82 6 -168 12 -191 10
-45 55 -176 62 -183 10 -10 164 -22 178 -14 9 5 -10 9 -50 9 -97 1 -102 12
-23 47 93 42 92 42 123 11 27 -26 30 -27 67 -14 23 8 43 23 51 39 11 23 19 27
57 27 36 0 43 -3 38 -16 -6 -16 7 -15 102 3 l30 6 -30 8 c-17 5 -40 18 -52 29
-12 11 -26 20 -32 20 -5 0 -11 3 -13 8 -1 4 -19 20 -38 36 -19 16 -69 59 -110
97 -148 135 -177 152 -237 147 -28 -2 -43 -12 -67 -42 -31 -38 -31 -39 -29
-148 1 -60 0 -108 -2 -106 -1 1 -8 41 -14 89 -16 120 -3 183 46 227 42 37 72
40 135 15 76 -29 109 -55 283 -223 109 -105 179 -160 204 -160 9 0 3 9 -17 21
-18 12 -31 23 -29 26 6 5 81 -30 85 -39 2 -5 9 -8 15 -8 15 0 125 -73 155
-102 18 -19 22 -20 22 -6 0 9 -6 19 -12 21 -10 4 -10 6 0 6 9 1 12 26 12 91
l0 89 -47 -15 c-63 -20 -154 -29 -133 -13 13 9 13 10 0 6 -8 -2 -17 -12 -18
-21 -3 -13 1 -16 15 -12 23 7 52 -8 31 -16 -7 -3 -52 12 -98 34 -67 31 -102
56 -163 116 -43 43 -96 102 -118 134 -50 73 -125 149 -185 189 -27 17 -41 29
-31 25 30 -10 126 -77 141 -97 7 -10 16 -16 21 -11 5 4 4 1 0 -7 -6 -11 -4
-13 8 -8 12 4 14 2 10 -10 -5 -12 -3 -14 8 -8 8 4 11 5 7 0 -4 -4 -2 -13 5
-20 7 -7 23 -27 36 -44 13 -17 31 -31 40 -31 13 0 13 -2 2 -9 -11 -7 -8 -11
10 -17 13 -4 27 -7 30 -7 3 1 6 -5 6 -13 0 -12 -4 -12 -26 2 l-26 15 24 -21
c18 -16 27 -18 37 -9 10 8 14 8 14 0 0 -6 9 -20 20 -31 18 -18 20 -18 20 -2 1
16 2 16 13 1 11 -14 36 -17 158 -18 204 -2 189 -23 189 263 l0 226 -1000 0
-1000 0 0 -265z m1083 128 c26 -9 47 -19 47 -22 -1 -12 -48 -58 -88 -85 -23
-16 -42 -31 -42 -35 0 -3 -12 -19 -25 -34 l-25 -28 -31 25 c-17 14 -41 29 -55
32 -15 4 -24 13 -24 25 0 25 -12 24 -28 -1 -7 -11 -22 -20 -35 -20 -12 0 -46
-11 -76 -25 -66 -31 -78 -26 -19 9 66 38 155 76 217 91 43 10 49 14 25 14 -17
1 -53 -6 -80 -14 -57 -17 -67 -18 -60 -6 11 17 102 35 206 41 l105 6 -37 17
c-36 16 -48 27 -30 27 4 0 28 -8 55 -17z m130 -40 c-7 -2 -21 -2 -30 0 -10 3
-4 5 12 5 17 0 24 -2 18 -5z m68 -253 c10 -6 19 -15 19 -20 0 -11 -26 -3 -55
17 -18 12 -18 13 -2 13 10 0 27 -5 38 -10z m-447 -122 c3 -13 8 -57 11 -98 l5
-75 -15 50 c-8 28 -15 63 -15 78 0 16 -5 37 -10 48 -8 15 -7 19 3 19 8 0 17
-10 21 -22z m-287 -75 c-24 -32 -72 -100 -107 -152 -53 -77 -72 -97 -109 -114
-25 -12 -50 -23 -55 -25 -5 -3 11 22 36 54 25 33 75 106 113 162 66 102 98
131 148 132 14 0 9 -12 -26 -57z m156 28 c-9 -11 -20 -18 -25 -15 -4 3 -8 0
-8 -5 0 -6 5 -11 11 -11 8 0 8 -5 -1 -15 -7 -8 -18 -15 -24 -15 -6 0 -5 4 3 9
10 6 10 13 3 28 -14 25 2 43 35 43 22 0 22 -1 6 -19z m854 -25 c4 -3 -14 -6
-40 -6 -56 0 -168 -23 -221 -45 -21 -9 -40 -14 -42 -12 -7 7 80 47 131 59 50
13 161 15 172 4z m-93 -45 c3 -5 -1 -11 -9 -15 -15 -6 -29 7 -18 18 9 9 21 8
27 -3z m-731 -102 c20 -6 37 -11 37 -12 0 -2 -30 -1 -66 1 -72 5 -184 -18
-248 -50 -21 -11 -35 -15 -31 -9 16 26 208 92 245 84 14 -3 42 -9 63 -14z
m-63 -49 c0 -5 -7 -10 -15 -10 -8 0 -15 5 -15 10 0 6 7 10 15 10 8 0 15 -4 15
-10z m968 -289 c-6 -9 6 1 29 22 22 22 43 35 46 30 3 -5 8 -68 12 -140 l6
-132 -38 -25 c-21 -14 -41 -26 -45 -26 -5 0 -9 24 -10 53 l-1 52 -6 -55 c-6
-51 -8 -55 -36 -61 -16 -4 -42 -7 -57 -8 l-28 -1 -2 88 -2 87 -5 -90 -6 -90
-62 -3 -63 -3 0 55 c0 30 -4 57 -9 61 -6 3 -8 -9 -4 -29 3 -19 3 -47 -1 -61
-6 -25 -9 -26 -74 -23 l-67 3 -3 47 -3 46 65 22 c65 21 90 36 41 24 -41 -10
-30 15 41 91 52 57 66 67 74 55 8 -12 10 -10 10 11 0 19 18 43 65 87 35 34 67
62 69 62 3 0 7 -8 9 -17 3 -13 5 -10 6 6 0 14 13 38 29 54 l27 28 3 -101 c2
-70 -1 -107 -10 -119z m-1318 -186 c0 -5 -5 -3 -10 5 -5 8 -10 20 -10 25 0 6
5 3 10 -5 5 -8 10 -19 10 -25z m960 26 c0 -5 -7 -12 -16 -15 -24 -9 -28 -7
-14 9 14 17 30 20 30 6z m-83 -128 c-3 -2 -31 -1 -63 3 l-58 7 51 22 c28 13
54 29 59 36 6 10 10 2 12 -25 2 -21 1 -40 -1 -43z m-917 -75 c10 -6 7 -7 -10
-2 -14 3 -32 11 -40 16 -10 6 -7 7 10 2 14 -3 32 -11 40 -16z m-116 -127 c-2
-3 -12 3 -22 13 -16 17 -16 18 5 5 12 -7 20 -15 17 -18z"/>
<path d="M921 1746 l-53 -11 40 -32 40 -32 36 43 c33 41 34 43 13 43 -12 0
-46 -5 -76 -11z"/>
<path d="M401 1193 c-10 -26 -10 -27 4 -9 8 11 15 23 15 28 0 15 -7 8 -19 -19z"/>
<path d="M366 1154 c-4 -9 -4 -19 -1 -22 2 -3 7 3 11 12 4 9 4 19 1 22 -2 3
-7 -3 -11 -12z"/>
<path d="M1480 809 c-74 -38 -131 -69 -126 -69 13 0 228 106 251 124 30 23 22
19 -125 -55z"/>
<path d="M1632 850 c0 -14 2 -19 5 -12 2 6 2 18 0 25 -3 6 -5 1 -5 -13z"/>
<path d="M1643 775 c0 -27 2 -38 4 -22 2 15 2 37 0 50 -2 12 -4 0 -4 -28z"/>
<path d="M320 1520 c0 -5 5 -10 10 -10 6 0 10 5 10 10 0 6 -4 10 -10 10 -5 0
-10 -4 -10 -10z"/>
<path d="M154 1499 c-9 -15 -2 -18 20 -9 17 6 18 7 3 13 -9 3 -19 2 -23 -4z"/>
<path d="M1787 1488 c-7 -4 9 -8 36 -8 26 0 47 2 47 4 0 8 -71 12 -83 4z"/>
<path d="M164 1446 c-46 -15 -121 -54 -145 -76 -11 -10 -17 -33 -18 -73 -1
-64 -2 -63 59 -17 30 23 68 39 105 45 29 4 65 18 65 25 0 5 -10 11 -22 13 -13
2 -5 5 17 5 22 0 34 -2 28 -5 -20 -8 -15 -23 7 -23 11 0 23 -7 26 -15 9 -22
24 -18 24 5 0 11 -6 20 -14 20 -8 0 -18 5 -22 11 -5 8 1 10 18 7 24 -5 55 16
39 27 -5 3 -11 0 -13 -5 -2 -8 -11 -8 -28 -1 -18 7 -20 10 -7 10 9 1 17 6 17
12 0 6 -7 9 -15 5 -8 -3 -15 -1 -15 3 0 5 19 13 43 17 34 5 38 8 22 15 -31 12
-125 9 -171 -5z m79 -27 c-9 -9 -53 -1 -53 10 0 4 14 6 31 3 17 -2 27 -8 22
-13z m-169 -50 c-31 -12 -39 -10 -19 5 11 8 24 12 29 8 5 -3 1 -9 -10 -13z
m-9 -29 c-28 -12 -47 -12 -40 0 3 6 18 10 33 9 24 0 25 -1 7 -9z m70 1 c3 -6
-3 -9 -14 -8 -11 0 -17 5 -15 9 7 11 22 10 29 -1z"/>
<path d="M365 1430 c3 -5 8 -10 11 -10 2 0 4 5 4 10 0 6 -5 10 -11 10 -5 0 -7
-4 -4 -10z"/>
<path d="M208 1230 c-50 -9 -132 -61 -136 -85 -3 -26 -44 -105 -54 -105 -5 0
-8 -12 -7 -27 0 -25 1 -26 9 -8 7 17 9 15 9 -12 1 -17 -4 -35 -11 -39 -7 -5
-5 -11 7 -21 11 -7 13 -13 7 -13 -7 0 -12 -6 -12 -12 0 -7 16 4 36 24 19 21
32 43 29 48 -4 6 -1 9 7 8 9 -2 14 10 16 37 2 22 8 45 14 52 12 14 2 33 -17
33 -8 0 -17 5 -21 12 -5 8 0 9 14 6 12 -4 20 -2 16 3 -3 5 2 9 11 9 12 0 15
-6 10 -20 -4 -11 -2 -20 4 -20 6 0 11 4 11 9 0 5 20 14 44 20 25 6 48 16 51
21 4 6 10 8 15 5 4 -3 6 11 3 31 -3 24 0 39 9 45 16 11 -9 10 -64 -1z m39 -12
c-2 -7 0 -21 5 -32 7 -13 7 -16 -1 -12 -6 4 -11 0 -11 -10 0 -14 -3 -15 -12
-6 -15 15 -31 16 -22 1 5 -8 -1 -10 -19 -5 -16 4 -27 1 -30 -7 -2 -6 -4 0 -3
15 0 14 4 24 7 22 4 -2 21 -1 38 2 25 5 29 9 20 21 -10 11 -9 12 5 7 9 -3 16
-1 16 5 0 6 3 11 6 11 3 0 4 -6 1 -12z m-107 -48 c0 -5 -7 -10 -16 -10 -8 0
-12 5 -9 10 3 6 10 10 16 10 5 0 9 -4 9 -10z m-30 -77 c0 -5 -13 -18 -30 -31
-17 -14 -27 -29 -23 -38 3 -8 0 -14 -6 -14 -14 0 -14 10 2 43 6 15 18 27 25
27 6 0 12 5 12 10 0 6 5 10 10 10 6 0 10 -3 10 -7z"/>
<path d="M890 1164 c-88 -24 -156 -59 -211 -110 -102 -96 -105 -150 -15 -237
17 -16 23 -24 14 -17 -10 7 -18 8 -18 3 0 -18 45 -60 95 -89 28 -15 53 -32 57
-38 3 -5 60 -10 125 -10 107 -1 123 1 168 24 27 14 51 31 53 39 4 11 -1 10
-19 -2 -13 -10 -28 -17 -34 -17 -5 0 3 9 20 20 17 11 33 16 40 10 11 -9 53 16
42 26 -4 4 -15 1 -24 -7 -27 -20 -4 3 52 52 l50 43 -40 -42 c-21 -23 -34 -42
-27 -42 6 0 28 18 49 39 53 55 59 63 67 96 7 28 7 29 -8 10 -14 -18 -14 -15
-1 29 37 122 -2 187 -131 221 -73 19 -231 19 -304 -1z m338 -78 c18 -9 32 -18
32 -19 0 -1 -69 -2 -153 -3 -182 0 -381 -31 -431 -67 -26 -18 -29 -18 -16 -2
16 19 101 61 185 90 101 35 317 35 383 1z m82 -200 c0 -2 -8 -10 -17 -17 -16
-13 -17 -12 -4 4 13 16 21 21 21 13z m-373 -192 c-3 -3 -12 -4 -19 -1 -8 3 -5
6 6 6 11 1 17 -2 13 -5z m63 -4 c0 -5 -4 -10 -10 -10 -5 0 -10 5 -10 10 0 6 5
10 10 10 6 0 10 -4 10 -10z m64 1 c3 -4 -6 -6 -19 -3 -14 2 -25 6 -25 8 0 8
39 4 44 -5z"/>
<path d="M503 1093 c15 -2 37 -2 50 0 12 2 0 4 -28 4 -27 0 -38 -2 -22 -4z"/>
<path d="M1971 894 c0 -11 3 -14 6 -6 3 7 2 16 -1 19 -3 4 -6 -2 -5 -13z"/>
<path d="M637 819 c7 -7 15 -10 18 -7 3 3 -2 9 -12 12 -14 6 -15 5 -6 -5z"/>
<path d="M1970 731 c-14 -10 -45 -26 -70 -35 -45 -17 -45 -17 -42 -60 4 -50
14 -56 95 -56 l48 0 -2 85 c-1 47 -2 85 -3 85 0 0 -12 -9 -26 -19z m20 -15 c0
-2 -7 -7 -16 -10 -8 -3 -12 -2 -9 4 6 10 25 14 25 6z"/>
<path d="M1840 587 c0 -26 -71 -67 -127 -74 -28 -3 -113 2 -189 12 -160 20
-283 15 -349 -14 -43 -19 -67 -41 -40 -37 8 1 17 5 21 9 3 3 13 0 21 -8 8 -8
24 -15 36 -15 12 0 31 -7 41 -15 19 -15 19 -15 -2 -15 -33 0 -26 -17 9 -22 20
-3 33 0 36 9 3 7 9 10 14 7 5 -3 -6 -21 -24 -40 -62 -69 -247 -350 -247 -376
0 -5 13 -8 28 -8 30 0 62 26 62 51 0 8 6 23 14 34 7 11 14 23 15 28 6 41 129
240 191 307 39 42 38 41 -8 -20 -92 -121 -156 -248 -180 -358 -9 -38 -8 -42 9
-42 13 0 21 12 29 40 36 132 145 324 236 413 41 40 53 47 79 42 16 -2 71 -7
121 -11 84 -6 96 -5 145 18 59 27 92 69 71 90 -9 9 -12 8 -12 -5z"/>
<path d="M1215 390 c-3 -5 -1 -10 4 -10 6 0 11 5 11 10 0 6 -2 10 -4 10 -3 0
-8 -4 -11 -10z"/>
</g>
</svg>
